<svg width="76" height="68" viewBox="0 0 76 68" fill="none" xmlns="http://www.w3.org/2000/svg">
<path d="M16.5871 38.1895L40.4987 60.0121C41.4746 60.9028 41.9431 61.942 41.9041 63.1296C41.865 64.3172 41.3559 65.3564 40.3767 66.2471C39.4007 67.0636 38.262 67.4911 36.9607 67.5297C35.6594 67.5683 34.5208 67.1408 33.5448 66.2471L1.33739 36.8534C0.849403 36.4081 0.50293 35.9256 0.297974 35.406C0.0930179 34.8864 -0.00620624 34.3297 0.000300304 33.7359C0.00680685 33.1421 0.109284 32.5854 0.307733 32.0658C0.506183 31.5462 0.851031 31.0638 1.34228 30.6184L33.5497 1.22473C34.4443 0.408244 35.5634 0 36.907 0C38.2506 0 39.4088 0.408244 40.3815 1.22473C41.3575 2.11545 41.8455 3.17392 41.8455 4.40014C41.8455 5.62636 41.3575 6.68335 40.3815 7.5711L16.5871 29.2823H71.1201C72.5027 29.2823 73.6625 29.7099 74.5994 30.565C75.5364 31.4201 76.0032 32.477 76 33.7359C75.9967 34.9948 75.5283 36.0533 74.5946 36.9113C73.6609 37.7694 72.5027 38.1954 71.1201 38.1895H16.5871Z" fill="black"/>
</svg>
